<svg width="10" height="11" viewBox="0 0 10 11" fill="none" xmlns="http://www.w3.org/2000/svg">
<path d="M1.03944 4.96957C0.842622 4.97012 0.649979 5.02639 0.483802 5.13186C0.317624 5.23732 0.184703 5.38769 0.100416 5.56555C0.0161296 5.74341 -0.0160781 5.9415 0.00751928 6.1369C0.0311167 6.3323 0.109555 6.51703 0.233759 6.66971L2.8815 9.91319C2.97591 10.0304 3.09692 10.1234 3.23449 10.1845C3.37206 10.2456 3.52221 10.2729 3.67247 10.2643C3.99385 10.247 4.284 10.0751 4.46899 9.79244L9.96903 0.934638C9.96994 0.933158 9.97087 0.931695 9.97184 0.930251C10.0234 0.851014 10.0067 0.693987 9.90019 0.595341C9.87093 0.568252 9.83643 0.54744 9.79882 0.534186C9.76121 0.520933 9.72129 0.515519 9.68151 0.518278C9.64172 0.521038 9.60293 0.531912 9.56751 0.55023C9.53209 0.568549 9.5008 0.593925 9.47556 0.624795C9.47358 0.627222 9.47155 0.629612 9.46946 0.631966L3.9226 6.89909C3.90149 6.92294 3.87586 6.94236 3.84718 6.95622C3.81851 6.97007 3.78737 6.9781 3.75556 6.97982C3.72376 6.98154 3.69194 6.97692 3.66194 6.96624C3.63194 6.95555 3.60436 6.93901 3.5808 6.91758L1.7399 5.24235C1.54871 5.06708 1.29881 4.96977 1.03944 4.96957Z" fill="#FFBC00"/>
</svg>
