<svg width="170" height="217" viewBox="0 0 170 217" fill="none" xmlns="http://www.w3.org/2000/svg">
<g opacity="0.4">
<path d="M-38.8065 213.864C-38.8065 212.132 -40.1929 210.728 -41.9032 210.728C-43.6135 210.728 -45 212.132 -45 213.864C-45 215.596 -43.6135 217 -41.9032 217C-40.1929 217 -38.8065 215.596 -38.8065 213.864Z" fill="white" fill-opacity="0.67"/>
<path d="M-38.8065 186.984C-38.8065 185.252 -40.1929 183.848 -41.9032 183.848C-43.6135 183.848 -45 185.252 -45 186.984C-45 188.716 -43.6135 190.12 -41.9032 190.12C-40.1929 190.12 -38.8065 188.716 -38.8065 186.984Z" fill="white" fill-opacity="0.67"/>
<path d="M-12.0924 213.864C-12.0924 212.132 -13.4788 210.728 -15.1891 210.728C-16.8994 210.728 -18.2859 212.132 -18.2859 213.864C-18.2859 215.596 -16.8994 217 -15.1891 217C-13.4788 217 -12.0924 215.596 -12.0924 213.864Z" fill="white" fill-opacity="0.67"/>
<path d="M-12.0924 186.984C-12.0924 185.252 -13.4788 183.848 -15.1891 183.848C-16.8995 183.848 -18.2859 185.252 -18.2859 186.984C-18.2859 188.716 -16.8995 190.12 -15.1891 190.12C-13.4788 190.12 -12.0924 188.716 -12.0924 186.984Z" fill="white" fill-opacity="0.67"/>
<path d="M10.8898 213.864C10.8898 212.132 9.50336 210.728 7.79306 210.728C6.08276 210.728 4.69629 212.132 4.69629 213.864C4.69629 215.596 6.08276 217 7.79306 217C9.50336 217 10.8898 215.596 10.8898 213.864Z" fill="white" fill-opacity="0.67"/>
<path d="M10.8898 186.984C10.8898 185.252 9.50336 183.848 7.79306 183.848C6.08276 183.848 4.69629 185.252 4.69629 186.984C4.69629 188.716 6.08276 190.12 7.79306 190.12C9.50336 190.12 10.8898 188.716 10.8898 186.984Z" fill="white" fill-opacity="0.67"/>
<path d="M37.435 213.864C37.435 212.132 36.0485 210.728 34.3382 210.728C32.6279 210.728 31.2414 212.132 31.2414 213.864C31.2414 215.596 32.6279 217 34.3382 217C36.0485 217 37.435 215.596 37.435 213.864Z" fill="white" fill-opacity="0.67"/>
<path d="M37.435 186.984C37.435 185.252 36.0485 183.848 34.3382 183.848C32.6279 183.848 31.2414 185.252 31.2414 186.984C31.2414 188.716 32.6279 190.12 34.3382 190.12C36.0485 190.12 37.435 188.716 37.435 186.984Z" fill="white" fill-opacity="0.67"/>
<path d="M63.812 213.864C63.812 212.132 62.4255 210.728 60.7152 210.728C59.0049 210.728 57.6184 212.132 57.6184 213.864C57.6184 215.596 59.0049 217 60.7152 217C62.4255 217 63.812 215.596 63.812 213.864Z" fill="white" fill-opacity="0.67"/>
<path d="M63.812 186.984C63.812 185.252 62.4255 183.848 60.7152 183.848C59.0049 183.848 57.6184 185.252 57.6184 186.984C57.6184 188.716 59.0049 190.12 60.7152 190.12C62.4255 190.12 63.812 188.716 63.812 186.984Z" fill="white" fill-opacity="0.67"/>
<path d="M90.3634 213.864C90.3634 212.132 88.9769 210.728 87.2666 210.728C85.5564 210.728 84.1699 212.132 84.1699 213.864C84.1699 215.596 85.5564 217 87.2666 217C88.9769 217 90.3634 215.596 90.3634 213.864Z" fill="white" fill-opacity="0.67"/>
<path d="M90.3634 186.984C90.3634 185.252 88.9769 183.848 87.2666 183.848C85.5564 183.848 84.1699 185.252 84.1699 186.984C84.1699 188.716 85.5564 190.12 87.2666 190.12C88.9769 190.12 90.3634 188.716 90.3634 186.984Z" fill="white" fill-opacity="0.67"/>
<path d="M116.903 213.864C116.903 212.132 115.517 210.728 113.806 210.728C112.096 210.728 110.709 212.132 110.709 213.864C110.709 215.596 112.096 217 113.806 217C115.517 217 116.903 215.596 116.903 213.864Z" fill="white" fill-opacity="0.67"/>
<path d="M116.903 186.984C116.903 185.252 115.517 183.848 113.806 183.848C112.096 183.848 110.709 185.252 110.709 186.984C110.709 188.716 112.096 190.12 113.806 190.12C115.517 190.12 116.903 188.716 116.903 186.984Z" fill="white" fill-opacity="0.67"/>
<path d="M143.286 213.864C143.286 212.132 141.899 210.728 140.189 210.728C138.479 210.728 137.092 212.132 137.092 213.864C137.092 215.596 138.479 217 140.189 217C141.899 217 143.286 215.596 143.286 213.864Z" fill="white" fill-opacity="0.67"/>
<path d="M143.286 186.984C143.286 185.252 141.899 183.848 140.189 183.848C138.479 183.848 137.092 185.252 137.092 186.984C137.092 188.716 138.479 190.12 140.189 190.12C141.899 190.12 143.286 188.716 143.286 186.984Z" fill="white" fill-opacity="0.67"/>
<path d="M170 213.864C170 212.132 168.614 210.728 166.903 210.728C165.193 210.728 163.806 212.132 163.806 213.864C163.806 215.596 165.193 217 166.903 217C168.614 217 170 215.596 170 213.864Z" fill="white" fill-opacity="0.67"/>
<path d="M170 186.984C170 185.252 168.614 183.848 166.903 183.848C165.193 183.848 163.806 185.252 163.806 186.984C163.806 188.716 165.193 190.12 166.903 190.12C168.614 190.12 170 188.716 170 186.984Z" fill="white" fill-opacity="0.67"/>
<path d="M-38.8064 164.453C-38.8064 162.721 -40.1929 161.317 -41.9032 161.317C-43.6135 161.317 -45 162.721 -45 164.453C-45 166.185 -43.6135 167.589 -41.9032 167.589C-40.1929 167.589 -38.8064 166.185 -38.8064 164.453Z" fill="white" fill-opacity="0.67"/>
<path d="M-38.8064 137.567C-38.8064 135.835 -40.1929 134.431 -41.9032 134.431C-43.6135 134.431 -45 135.835 -45 137.567C-45 139.299 -43.6135 140.703 -41.9032 140.703C-40.1929 140.703 -38.8064 139.299 -38.8064 137.567Z" fill="white" fill-opacity="0.67"/>
<path d="M-38.8064 110.679C-38.8064 108.947 -40.1929 107.543 -41.9032 107.543C-43.6135 107.543 -45 108.947 -45 110.679C-45 112.411 -43.6135 113.815 -41.9032 113.815C-40.1929 113.815 -38.8064 112.411 -38.8064 110.679Z" fill="white" fill-opacity="0.67"/>
<path d="M-41.9032 80.6555C-41.2907 80.6555 -40.692 80.8395 -40.1828 81.1841C-39.6735 81.5287 -39.2765 82.0184 -39.0422 82.5914C-38.8078 83.1644 -38.7465 83.795 -38.866 84.4033C-38.9854 85.0116 -39.2804 85.5704 -39.7135 86.009C-40.1466 86.4475 -40.6984 86.7462 -41.2991 86.8672C-41.8998 86.9882 -42.5225 86.9261 -43.0883 86.6888C-43.6542 86.4514 -44.1378 86.0495 -44.4781 85.5338C-44.8184 85.0181 -45 84.4118 -45 83.7915C-45 82.9598 -44.6737 82.1622 -44.093 81.5741C-43.5122 80.986 -42.7245 80.6555 -41.9032 80.6555Z" fill="white" fill-opacity="0.67"/>
<path d="M-38.8065 56.904C-38.8065 55.1721 -40.1929 53.7682 -41.9032 53.7682C-43.6135 53.7682 -45 55.1721 -45 56.904C-45 58.636 -43.6135 60.0401 -41.9032 60.0401C-40.1929 60.0401 -38.8065 58.636 -38.8065 56.904Z" fill="white" fill-opacity="0.67"/>
<path d="M-38.8065 30.0163C-38.8065 28.2843 -40.1929 26.8804 -41.9032 26.8804C-43.6135 26.8804 -45 28.2843 -45 30.0163C-45 31.7482 -43.6135 33.1523 -41.9032 33.1523C-40.1929 33.1523 -38.8065 31.7482 -38.8065 30.0163Z" fill="white" fill-opacity="0.67"/>
<path d="M-38.8065 3.13604C-38.8065 1.40411 -40.1929 9.09257e-06 -41.9032 9.16766e-06C-43.6135 9.24275e-06 -45 1.40411 -45 3.13605C-45 4.86798 -43.6135 6.27192 -41.9032 6.27192C-40.1929 6.27192 -38.8065 4.86798 -38.8065 3.13604Z" fill="white" fill-opacity="0.67"/>
<path d="M-12.0924 164.453C-12.0924 162.721 -13.4788 161.317 -15.1891 161.317C-16.8994 161.317 -18.2859 162.721 -18.2859 164.453C-18.2859 166.185 -16.8994 167.589 -15.1891 167.589C-13.4788 167.589 -12.0924 166.185 -12.0924 164.453Z" fill="white" fill-opacity="0.67"/>
<path d="M-12.0924 137.567C-12.0924 135.835 -13.4788 134.431 -15.1891 134.431C-16.8994 134.431 -18.2859 135.835 -18.2859 137.567C-18.2859 139.299 -16.8994 140.703 -15.1891 140.703C-13.4788 140.703 -12.0924 139.299 -12.0924 137.567Z" fill="white" fill-opacity="0.67"/>
<path d="M-12.0924 110.679C-12.0924 108.947 -13.4788 107.543 -15.1891 107.543C-16.8994 107.543 -18.2859 108.947 -18.2859 110.679C-18.2859 112.411 -16.8994 113.815 -15.1891 113.815C-13.4788 113.815 -12.0924 112.411 -12.0924 110.679Z" fill="white" fill-opacity="0.67"/>
<path d="M-15.1891 80.6555C-14.5766 80.6555 -13.9779 80.8395 -13.4687 81.1841C-12.9594 81.5287 -12.5625 82.0184 -12.3281 82.5914C-12.0937 83.1644 -12.0324 83.795 -12.1519 84.4033C-12.2714 85.0116 -12.5663 85.5704 -12.9994 86.009C-13.4325 86.4475 -13.9843 86.7462 -14.585 86.8672C-15.1857 86.9882 -15.8083 86.9261 -16.3742 86.6888C-16.9401 86.4514 -17.4237 86.0495 -17.764 85.5338C-18.1043 85.0181 -18.2859 84.4118 -18.2859 83.7915C-18.2859 82.9598 -17.9597 82.1622 -17.3789 81.5741C-16.7981 80.986 -16.0104 80.6555 -15.1891 80.6555Z" fill="white" fill-opacity="0.67"/>
<path d="M-12.0924 56.904C-12.0924 55.1721 -13.4788 53.7682 -15.1891 53.7682C-16.8994 53.7682 -18.2859 55.1721 -18.2859 56.904C-18.2859 58.636 -16.8994 60.0401 -15.1891 60.0401C-13.4788 60.0401 -12.0924 58.636 -12.0924 56.904Z" fill="white" fill-opacity="0.67"/>
<path d="M-12.0924 30.0163C-12.0924 28.2843 -13.4788 26.8804 -15.1891 26.8804C-16.8994 26.8804 -18.2859 28.2843 -18.2859 30.0163C-18.2859 31.7482 -16.8994 33.1523 -15.1891 33.1523C-13.4788 33.1523 -12.0924 31.7482 -12.0924 30.0163Z" fill="white" fill-opacity="0.67"/>
<path d="M-12.0924 3.13604C-12.0924 1.40411 -13.4788 7.91969e-06 -15.1891 7.99478e-06C-16.8995 8.06987e-06 -18.2859 1.40411 -18.2859 3.13604C-18.2859 4.86798 -16.8995 6.27192 -15.1891 6.27192C-13.4788 6.27192 -12.0924 4.86798 -12.0924 3.13604Z" fill="white" fill-opacity="0.67"/>
<path d="M10.8898 164.453C10.8898 162.721 9.50336 161.317 7.79306 161.317C6.08276 161.317 4.69629 162.721 4.69629 164.453C4.69629 166.185 6.08276 167.589 7.79306 167.589C9.50336 167.589 10.8898 166.185 10.8898 164.453Z" fill="white" fill-opacity="0.67"/>
<path d="M10.8898 137.567C10.8898 135.835 9.50336 134.431 7.79306 134.431C6.08276 134.431 4.69629 135.835 4.69629 137.567C4.69629 139.299 6.08276 140.703 7.79306 140.703C9.50336 140.703 10.8898 139.299 10.8898 137.567Z" fill="white" fill-opacity="0.67"/>
<path d="M10.8898 110.679C10.8898 108.947 9.50336 107.543 7.79306 107.543C6.08276 107.543 4.69629 108.947 4.69629 110.679C4.69629 112.411 6.08276 113.815 7.79306 113.815C9.50336 113.815 10.8898 112.411 10.8898 110.679Z" fill="white" fill-opacity="0.67"/>
<path d="M7.79306 80.6555C8.40554 80.6555 9.00428 80.8395 9.51355 81.1841C10.0228 81.5287 10.4197 82.0184 10.6541 82.5914C10.8885 83.1644 10.9498 83.795 10.8303 84.4033C10.7108 85.0116 10.4159 85.5704 9.9828 86.009C9.54971 86.4475 8.99795 86.7462 8.39723 86.8672C7.79652 86.9882 7.17384 86.9261 6.60798 86.6888C6.04212 86.4514 5.55847 86.0495 5.21819 85.5338C4.87791 85.0181 4.69629 84.4118 4.69629 83.7915C4.69629 82.9598 5.02256 82.1622 5.60332 81.5741C6.18407 80.986 6.97174 80.6555 7.79306 80.6555Z" fill="white" fill-opacity="0.67"/>
<path d="M10.8898 56.904C10.8898 55.1721 9.50336 53.7682 7.79306 53.7682C6.08276 53.7682 4.69629 55.1721 4.69629 56.904C4.69629 58.636 6.08276 60.0401 7.79306 60.0401C9.50336 60.0401 10.8898 58.636 10.8898 56.904Z" fill="white" fill-opacity="0.67"/>
<path d="M10.8898 30.0163C10.8898 28.2843 9.50336 26.8804 7.79306 26.8804C6.08276 26.8804 4.69629 28.2843 4.69629 30.0163C4.69629 31.7482 6.08276 33.1523 7.79306 33.1523C9.50336 33.1523 10.8898 31.7482 10.8898 30.0163Z" fill="white" fill-opacity="0.67"/>
<path d="M10.8898 3.13604C10.8898 1.40411 9.50336 6.91065e-06 7.79306 6.98574e-06C6.08276 7.06083e-06 4.69629 1.40411 4.69629 3.13604C4.69629 4.86798 6.08276 6.27192 7.79306 6.27192C9.50336 6.27192 10.8898 4.86798 10.8898 3.13604Z" fill="white" fill-opacity="0.67"/>
<path d="M37.435 164.453C37.435 162.721 36.0485 161.317 34.3382 161.317C32.6279 161.317 31.2414 162.721 31.2414 164.453C31.2414 166.185 32.6279 167.589 34.3382 167.589C36.0485 167.589 37.435 166.185 37.435 164.453Z" fill="white" fill-opacity="0.67"/>
<path d="M37.435 137.567C37.435 135.835 36.0485 134.431 34.3382 134.431C32.6279 134.431 31.2414 135.835 31.2414 137.567C31.2414 139.299 32.6279 140.703 34.3382 140.703C36.0485 140.703 37.435 139.299 37.435 137.567Z" fill="white" fill-opacity="0.67"/>
<path d="M37.435 110.679C37.435 108.947 36.0485 107.543 34.3382 107.543C32.6279 107.543 31.2414 108.947 31.2414 110.679C31.2414 112.411 32.6279 113.815 34.3382 113.815C36.0485 113.815 37.435 112.411 37.435 110.679Z" fill="white" fill-opacity="0.67"/>
<path d="M34.3383 80.6555C34.9506 80.6567 35.5487 80.8416 36.0572 81.187C36.5656 81.5323 36.9616 82.0225 37.1951 82.5956C37.4286 83.1687 37.489 83.7991 37.3689 84.407C37.2487 85.0149 36.9533 85.5731 36.5199 86.0111C36.0866 86.449 35.5348 86.7472 34.9343 86.8677C34.3337 86.9882 33.7114 86.9257 33.1459 86.6882C32.5804 86.4507 32.0971 86.0486 31.757 85.5331C31.417 85.0175 31.2355 84.4115 31.2355 83.7915C31.2355 83.3792 31.3159 82.971 31.4719 82.5901C31.6279 82.2092 31.8565 81.8631 32.1447 81.5719C32.4329 81.2806 32.775 81.0497 33.1514 80.8925C33.5278 80.7352 33.9312 80.6547 34.3383 80.6555Z" fill="white" fill-opacity="0.67"/>
<path d="M37.435 56.904C37.435 55.1721 36.0485 53.7682 34.3382 53.7682C32.6279 53.7682 31.2414 55.1721 31.2414 56.904C31.2414 58.636 32.6279 60.0401 34.3382 60.0401C36.0485 60.0401 37.435 58.636 37.435 56.904Z" fill="white" fill-opacity="0.67"/>
<path d="M37.435 30.0163C37.435 28.2843 36.0485 26.8804 34.3382 26.8804C32.6279 26.8804 31.2414 28.2843 31.2414 30.0163C31.2414 31.7482 32.6279 33.1523 34.3382 33.1523C36.0485 33.1523 37.435 31.7482 37.435 30.0163Z" fill="white" fill-opacity="0.67"/>
<path d="M37.435 3.13604C37.435 1.40411 36.0485 5.74519e-06 34.3382 5.82028e-06C32.6279 5.89537e-06 31.2414 1.40411 31.2414 3.13604C31.2414 4.86798 32.6279 6.27192 34.3382 6.27192C36.0485 6.27192 37.435 4.86798 37.435 3.13604Z" fill="white" fill-opacity="0.67"/>
<path d="M63.812 164.453C63.812 162.721 62.4255 161.317 60.7152 161.317C59.0049 161.317 57.6184 162.721 57.6184 164.453C57.6184 166.185 59.0049 167.589 60.7152 167.589C62.4255 167.589 63.812 166.185 63.812 164.453Z" fill="white" fill-opacity="0.67"/>
<path d="M63.812 137.567C63.812 135.835 62.4255 134.431 60.7152 134.431C59.0049 134.431 57.6184 135.835 57.6184 137.567C57.6184 139.299 59.0049 140.703 60.7152 140.703C62.4255 140.703 63.812 139.299 63.812 137.567Z" fill="white" fill-opacity="0.67"/>
<path d="M63.812 110.679C63.812 108.947 62.4255 107.543 60.7152 107.543C59.0049 107.543 57.6184 108.947 57.6184 110.679C57.6184 112.411 59.0049 113.815 60.7152 113.815C62.4255 113.815 63.812 112.411 63.812 110.679Z" fill="white" fill-opacity="0.67"/>
<path d="M60.7152 80.6555C61.3277 80.6555 61.9264 80.8395 62.4357 81.1841C62.9449 81.5287 63.3418 82.0184 63.5762 82.5914C63.8106 83.1644 63.8719 83.795 63.7525 84.4033C63.633 85.0116 63.338 85.5704 62.9049 86.009C62.4718 86.4475 61.9201 86.7462 61.3194 86.8672C60.7186 86.9882 60.096 86.9261 59.5301 86.6888C58.9642 86.4514 58.4806 86.0495 58.1403 85.5338C57.8 85.0181 57.6184 84.4118 57.6184 83.7915C57.6184 82.9598 57.9447 82.1622 58.5255 81.5741C59.1062 80.986 59.8939 80.6555 60.7152 80.6555Z" fill="white" fill-opacity="0.67"/>
<path d="M63.812 56.904C63.812 55.1721 62.4255 53.7682 60.7152 53.7682C59.0049 53.7682 57.6184 55.1721 57.6184 56.904C57.6184 58.636 59.0049 60.0401 60.7152 60.0401C62.4255 60.0401 63.812 58.636 63.812 56.904Z" fill="white" fill-opacity="0.67"/>
<path d="M63.812 30.0163C63.812 28.2843 62.4255 26.8804 60.7152 26.8804C59.0049 26.8804 57.6184 28.2843 57.6184 30.0163C57.6184 31.7482 59.0049 33.1523 60.7152 33.1523C62.4255 33.1523 63.812 31.7482 63.812 30.0163Z" fill="white" fill-opacity="0.67"/>
<path d="M63.812 3.13604C63.812 1.40411 62.4255 4.5871e-06 60.7152 4.66219e-06C59.0049 4.73729e-06 57.6184 1.40411 57.6184 3.13604C57.6184 4.86798 59.0049 6.27192 60.7152 6.27192C62.4255 6.27192 63.812 4.86798 63.812 3.13604Z" fill="white" fill-opacity="0.67"/>
<path d="M90.3634 164.453C90.3634 162.721 88.9769 161.317 87.2666 161.317C85.5564 161.317 84.1699 162.721 84.1699 164.453C84.1699 166.185 85.5564 167.589 87.2666 167.589C88.9769 167.589 90.3634 166.185 90.3634 164.453Z" fill="white" fill-opacity="0.67"/>
<path d="M90.3634 137.567C90.3634 135.835 88.9769 134.431 87.2666 134.431C85.5564 134.431 84.1699 135.835 84.1699 137.567C84.1699 139.299 85.5564 140.703 87.2666 140.703C88.9769 140.703 90.3634 139.299 90.3634 137.567Z" fill="white" fill-opacity="0.67"/>
<path d="M90.3634 110.679C90.3634 108.947 88.9769 107.543 87.2666 107.543C85.5564 107.543 84.1699 108.947 84.1699 110.679C84.1699 112.411 85.5564 113.815 87.2666 113.815C88.9769 113.815 90.3634 112.411 90.3634 110.679Z" fill="white" fill-opacity="0.67"/>
<path d="M87.2668 80.6555C87.879 80.6567 88.4772 80.8416 88.9856 81.187C89.4941 81.5323 89.8901 82.0225 90.1236 82.5956C90.357 83.1687 90.4174 83.7991 90.2973 84.407C90.1771 85.0149 89.8817 85.5731 89.4484 86.0111C89.0151 86.449 88.4633 86.7472 87.8627 86.8677C87.2622 86.9882 86.6398 86.9257 86.0743 86.6882C85.5088 86.4507 85.0255 86.0486 84.6855 85.5331C84.3455 85.0175 84.164 84.4115 84.164 83.7915C84.164 83.3792 84.2443 82.971 84.4003 82.5901C84.5563 82.2092 84.7849 81.8631 85.0732 81.5719C85.3613 81.2806 85.7034 81.0497 86.0798 80.8925C86.4563 80.7352 86.8596 80.6547 87.2668 80.6555Z" fill="white" fill-opacity="0.67"/>
<path d="M90.3634 56.904C90.3634 55.1721 88.9769 53.7682 87.2666 53.7682C85.5564 53.7682 84.1699 55.1721 84.1699 56.904C84.1699 58.636 85.5564 60.0401 87.2666 60.0401C88.9769 60.0401 90.3634 58.636 90.3634 56.904Z" fill="white" fill-opacity="0.67"/>
<path d="M90.3634 30.0163C90.3634 28.2843 88.9769 26.8804 87.2666 26.8804C85.5564 26.8804 84.1699 28.2843 84.1699 30.0163C84.1699 31.7482 85.5564 33.1523 87.2666 33.1523C88.9769 33.1523 90.3634 31.7482 90.3634 30.0163Z" fill="white" fill-opacity="0.67"/>
<path d="M90.3634 3.13604C90.3634 1.4041 88.9769 3.42136e-06 87.2666 3.49645e-06C85.5564 3.57154e-06 84.1699 1.4041 84.1699 3.13604C84.1699 4.86797 85.5564 6.27192 87.2666 6.27192C88.9769 6.27192 90.3634 4.86797 90.3634 3.13604Z" fill="white" fill-opacity="0.67"/>
<path d="M116.903 164.453C116.903 162.721 115.517 161.317 113.806 161.317C112.096 161.317 110.709 162.721 110.709 164.453C110.709 166.185 112.096 167.589 113.806 167.589C115.517 167.589 116.903 166.185 116.903 164.453Z" fill="white" fill-opacity="0.67"/>
<path d="M116.903 137.567C116.903 135.835 115.517 134.431 113.806 134.431C112.096 134.431 110.709 135.835 110.709 137.567C110.709 139.299 112.096 140.703 113.806 140.703C115.517 140.703 116.903 139.299 116.903 137.567Z" fill="white" fill-opacity="0.67"/>
<path d="M116.903 110.679C116.903 108.947 115.517 107.543 113.806 107.543C112.096 107.543 110.709 108.947 110.709 110.679C110.709 112.411 112.096 113.815 113.806 113.815C115.517 113.815 116.903 112.411 116.903 110.679Z" fill="white" fill-opacity="0.67"/>
<path d="M113.806 80.6555C114.419 80.6555 115.017 80.8395 115.527 81.1841C116.036 81.5287 116.433 82.0184 116.667 82.5914C116.902 83.1644 116.963 83.795 116.844 84.4033C116.724 85.0116 116.429 85.5704 115.996 86.009C115.563 86.4475 115.011 86.7462 114.41 86.8672C113.81 86.9882 113.187 86.9261 112.621 86.6888C112.055 86.4514 111.572 86.0495 111.231 85.5338C110.891 85.0181 110.709 84.4118 110.709 83.7915C110.711 82.9603 111.038 82.1636 111.618 81.5759C112.199 80.9881 112.985 80.6571 113.806 80.6555Z" fill="white" fill-opacity="0.67"/>
<path d="M116.903 56.904C116.903 55.1721 115.517 53.7682 113.806 53.7682C112.096 53.7682 110.709 55.1721 110.709 56.904C110.709 58.636 112.096 60.0401 113.806 60.0401C115.517 60.0401 116.903 58.636 116.903 56.904Z" fill="white" fill-opacity="0.67"/>
<path d="M116.903 30.0163C116.903 28.2843 115.517 26.8804 113.806 26.8804C112.096 26.8804 110.709 28.2843 110.709 30.0163C110.709 31.7482 112.096 33.1523 113.806 33.1523C115.517 33.1523 116.903 31.7482 116.903 30.0163Z" fill="white" fill-opacity="0.67"/>
<path d="M116.903 3.13604C116.903 1.4041 115.517 2.25614e-06 113.806 2.33123e-06C112.096 2.40632e-06 110.709 1.4041 110.709 3.13604C110.709 4.86797 112.096 6.27192 113.806 6.27192C115.517 6.27192 116.903 4.86797 116.903 3.13604Z" fill="white" fill-opacity="0.67"/>
<path d="M143.286 164.453C143.286 162.721 141.899 161.317 140.189 161.317C138.479 161.317 137.092 162.721 137.092 164.453C137.092 166.185 138.479 167.589 140.189 167.589C141.899 167.589 143.286 166.185 143.286 164.453Z" fill="white" fill-opacity="0.67"/>
<path d="M143.286 137.567C143.286 135.835 141.899 134.431 140.189 134.431C138.479 134.431 137.092 135.835 137.092 137.567C137.092 139.299 138.479 140.703 140.189 140.703C141.899 140.703 143.286 139.299 143.286 137.567Z" fill="white" fill-opacity="0.67"/>
<path d="M143.286 110.679C143.286 108.947 141.899 107.543 140.189 107.543C138.479 107.543 137.092 108.947 137.092 110.679C137.092 112.411 138.479 113.815 140.189 113.815C141.899 113.815 143.286 112.411 143.286 110.679Z" fill="white" fill-opacity="0.67"/>
<path d="M140.189 80.6555C140.802 80.6555 141.4 80.8395 141.91 81.1841C142.419 81.5287 142.816 82.0184 143.05 82.5914C143.285 83.1644 143.346 83.795 143.226 84.4033C143.107 85.0116 142.812 85.5704 142.379 86.009C141.946 86.4475 141.394 86.7462 140.793 86.8672C140.193 86.9882 139.57 86.9261 139.004 86.6888C138.438 86.4514 137.955 86.0495 137.614 85.5338C137.274 85.0181 137.092 84.4118 137.092 83.7915C137.092 82.9598 137.419 82.1622 137.999 81.5741C138.58 80.986 139.368 80.6555 140.189 80.6555Z" fill="white" fill-opacity="0.67"/>
<path d="M143.286 56.904C143.286 55.1721 141.899 53.7682 140.189 53.7682C138.479 53.7682 137.092 55.1721 137.092 56.904C137.092 58.636 138.479 60.0401 140.189 60.0401C141.899 60.0401 143.286 58.636 143.286 56.904Z" fill="white" fill-opacity="0.67"/>
<path d="M143.286 30.0163C143.286 28.2843 141.899 26.8804 140.189 26.8804C138.479 26.8804 137.092 28.2843 137.092 30.0163C137.092 31.7482 138.479 33.1523 140.189 33.1523C141.899 33.1523 143.286 31.7482 143.286 30.0163Z" fill="white" fill-opacity="0.67"/>
<path d="M143.286 3.13604C143.286 1.4041 141.899 1.09779e-06 140.189 1.17288e-06C138.479 1.24797e-06 137.092 1.4041 137.092 3.13604C137.092 4.86797 138.479 6.27191 140.189 6.27191C141.899 6.27191 143.286 4.86797 143.286 3.13604Z" fill="white" fill-opacity="0.67"/>
<path d="M170 164.453C170 162.721 168.614 161.317 166.903 161.317C165.193 161.317 163.806 162.721 163.806 164.453C163.806 166.185 165.193 167.589 166.903 167.589C168.614 167.589 170 166.185 170 164.453Z" fill="white" fill-opacity="0.67"/>
<path d="M170 137.567C170 135.835 168.614 134.431 166.903 134.431C165.193 134.431 163.806 135.835 163.806 137.567C163.806 139.299 165.193 140.703 166.903 140.703C168.614 140.703 170 139.299 170 137.567Z" fill="white" fill-opacity="0.67"/>
<path d="M170 110.679C170 108.947 168.614 107.543 166.903 107.543C165.193 107.543 163.806 108.947 163.806 110.679C163.806 112.411 165.193 113.815 166.903 113.815C168.614 113.815 170 112.411 170 110.679Z" fill="white" fill-opacity="0.67"/>
<path d="M166.903 80.6555C167.516 80.6555 168.114 80.8395 168.624 81.1841C169.133 81.5287 169.53 82.0184 169.764 82.5914C169.999 83.1644 170.06 83.795 169.94 84.4033C169.821 85.0116 169.526 85.5704 169.093 86.009C168.66 86.4475 168.108 86.7462 167.507 86.8672C166.907 86.9882 166.284 86.9261 165.718 86.6888C165.152 86.4514 164.669 86.0495 164.328 85.5338C163.988 85.0181 163.806 84.4118 163.806 83.7915C163.806 82.9598 164.133 82.1622 164.713 81.5741C165.294 80.986 166.082 80.6555 166.903 80.6555Z" fill="white" fill-opacity="0.67"/>
<path d="M170 56.904C170 55.1721 168.614 53.7682 166.903 53.7682C165.193 53.7682 163.806 55.1721 163.806 56.904C163.806 58.636 165.193 60.0401 166.903 60.0401C168.614 60.0401 170 58.636 170 56.904Z" fill="white" fill-opacity="0.67"/>
<path d="M170 30.0163C170 28.2843 168.614 26.8804 166.903 26.8804C165.193 26.8804 163.806 28.2843 163.806 30.0163C163.806 31.7482 165.193 33.1523 166.903 33.1523C168.614 33.1523 170 31.7482 170 30.0163Z" fill="white" fill-opacity="0.67"/>
<path d="M170 3.13604C170 1.4041 168.614 -7.50909e-08 166.903 0C165.193 7.50909e-08 163.806 1.4041 163.806 3.13604C163.806 4.86797 165.193 6.27191 166.903 6.27191C168.614 6.27191 170 4.86797 170 3.13604Z" fill="white" fill-opacity="0.67"/>
</g>
</svg>
