<svg width="160" height="161" viewBox="0 0 160 161" fill="none" xmlns="http://www.w3.org/2000/svg">
<g opacity="0.5">
<path d="M4.58192 158.221C4.58192 156.94 3.55622 155.901 2.29096 155.901C1.0257 155.901 -5.57589e-08 156.94 0 158.221C5.57589e-08 159.502 1.0257 160.541 2.29096 160.541C3.55622 160.541 4.58192 159.502 4.58192 158.221Z" fill="#FFBC00" fill-opacity="0.67"/>
<path d="M4.58192 138.334C4.58192 137.053 3.55622 136.014 2.29096 136.014C1.0257 136.014 -5.57589e-08 137.053 0 138.334C5.57589e-08 139.616 1.0257 140.654 2.29096 140.654C3.55622 140.654 4.58192 139.616 4.58192 138.334Z" fill="#FFBC00" fill-opacity="0.67"/>
<path d="M24.3447 158.221C24.3447 156.94 23.319 155.901 22.0538 155.901C20.7885 155.901 19.7628 156.94 19.7628 158.221C19.7628 159.502 20.7885 160.541 22.0538 160.541C23.319 160.541 24.3447 159.502 24.3447 158.221Z" fill="#FFBC00" fill-opacity="0.67"/>
<path d="M24.3447 138.334C24.3447 137.053 23.319 136.014 22.0538 136.014C20.7885 136.014 19.7628 137.053 19.7628 138.334C19.7628 139.616 20.7885 140.654 22.0538 140.654C23.319 140.654 24.3447 139.616 24.3447 138.334Z" fill="#FFBC00" fill-opacity="0.67"/>
<path d="M41.3467 158.221C41.3467 156.94 40.321 155.901 39.0558 155.901C37.7905 155.901 36.7648 156.94 36.7648 158.221C36.7648 159.502 37.7905 160.541 39.0558 160.541C40.321 160.541 41.3467 159.502 41.3467 158.221Z" fill="#FFBC00" fill-opacity="0.67"/>
<path d="M41.3467 138.334C41.3467 137.053 40.321 136.014 39.0558 136.014C37.7905 136.014 36.7648 137.053 36.7648 138.334C36.7648 139.616 37.7905 140.654 39.0558 140.654C40.321 140.654 41.3467 139.616 41.3467 138.334Z" fill="#FFBC00" fill-opacity="0.67"/>
<path d="M60.9845 158.221C60.9845 156.94 59.9589 155.901 58.6936 155.901C57.4283 155.901 56.4026 156.94 56.4026 158.221C56.4026 159.502 57.4283 160.541 58.6936 160.541C59.9589 160.541 60.9845 159.502 60.9845 158.221Z" fill="#FFBC00" fill-opacity="0.67"/>
<path d="M60.9845 138.334C60.9845 137.053 59.9589 136.014 58.6936 136.014C57.4283 136.014 56.4026 137.053 56.4026 138.334C56.4026 139.616 57.4283 140.654 58.6936 140.654C59.9589 140.654 60.9845 139.616 60.9845 138.334Z" fill="#FFBC00" fill-opacity="0.67"/>
<path d="M80.498 158.221C80.498 156.94 79.4723 155.901 78.207 155.901C76.9417 155.901 75.916 156.94 75.916 158.221C75.916 159.502 76.9417 160.541 78.207 160.541C79.4723 160.541 80.498 159.502 80.498 158.221Z" fill="#FFBC00" fill-opacity="0.67"/>
<path d="M80.498 138.334C80.498 137.053 79.4723 136.014 78.207 136.014C76.9417 136.014 75.916 137.053 75.916 138.334C75.916 139.616 76.9417 140.654 78.207 140.654C79.4723 140.654 80.498 139.616 80.498 138.334Z" fill="#FFBC00" fill-opacity="0.67"/>
<path d="M100.14 158.221C100.14 156.94 99.1147 155.901 97.8495 155.901C96.5842 155.901 95.5585 156.94 95.5585 158.221C95.5585 159.502 96.5842 160.541 97.8495 160.541C99.1147 160.541 100.14 159.502 100.14 158.221Z" fill="#FFBC00" fill-opacity="0.67"/>
<path d="M100.14 138.334C100.14 137.053 99.1147 136.014 97.8495 136.014C96.5842 136.014 95.5585 137.053 95.5585 138.334C95.5585 139.616 96.5842 140.654 97.8495 140.654C99.1147 140.654 100.14 139.616 100.14 138.334Z" fill="#FFBC00" fill-opacity="0.67"/>
<path d="M119.774 158.221C119.774 156.94 118.748 155.901 117.483 155.901C116.218 155.901 115.192 156.94 115.192 158.221C115.192 159.502 116.218 160.541 117.483 160.541C118.748 160.541 119.774 159.502 119.774 158.221Z" fill="#FFBC00" fill-opacity="0.67"/>
<path d="M119.774 138.334C119.774 137.053 118.748 136.014 117.483 136.014C116.218 136.014 115.192 137.053 115.192 138.334C115.192 139.616 116.218 140.654 117.483 140.654C118.748 140.654 119.774 139.616 119.774 138.334Z" fill="#FFBC00" fill-opacity="0.67"/>
<path d="M139.292 158.221C139.292 156.94 138.266 155.901 137.001 155.901C135.736 155.901 134.71 156.94 134.71 158.221C134.71 159.502 135.736 160.541 137.001 160.541C138.266 160.541 139.292 159.502 139.292 158.221Z" fill="#FFBC00" fill-opacity="0.67"/>
<path d="M139.292 138.334C139.292 137.053 138.266 136.014 137.001 136.014C135.736 136.014 134.71 137.053 134.71 138.334C134.71 139.616 135.736 140.654 137.001 140.654C138.266 140.654 139.292 139.616 139.292 138.334Z" fill="#FFBC00" fill-opacity="0.67"/>
<path d="M159.055 158.221C159.055 156.94 158.029 155.901 156.764 155.901C155.499 155.901 154.473 156.94 154.473 158.221C154.473 159.502 155.499 160.541 156.764 160.541C158.029 160.541 159.055 159.502 159.055 158.221Z" fill="#FFBC00" fill-opacity="0.67"/>
<path d="M159.055 138.334C159.055 137.053 158.029 136.014 156.764 136.014C155.499 136.014 154.473 137.053 154.473 138.334C154.473 139.616 155.499 140.654 156.764 140.654C158.029 140.654 159.055 139.616 159.055 138.334Z" fill="#FFBC00" fill-opacity="0.67"/>
<path d="M4.58192 121.666C4.58192 120.384 3.55623 119.346 2.29097 119.346C1.02571 119.346 7.57364e-06 120.384 7.62939e-06 121.666C7.68515e-06 122.947 1.02571 123.986 2.29097 123.986C3.55623 123.986 4.58192 122.947 4.58192 121.666Z" fill="#FFBC00" fill-opacity="0.67"/>
<path d="M4.58192 101.775C4.58192 100.493 3.55623 99.4546 2.29097 99.4546C1.02571 99.4546 7.57364e-06 100.493 7.62939e-06 101.775C7.68515e-06 103.056 1.02571 104.095 2.29097 104.095C3.55623 104.095 4.58192 103.056 4.58192 101.775Z" fill="#FFBC00" fill-opacity="0.67"/>
<path d="M4.58192 81.8829C4.58192 80.6015 3.55623 79.5628 2.29097 79.5628C1.02571 79.5628 7.57364e-06 80.6015 7.62939e-06 81.8829C7.68515e-06 83.1642 1.02571 84.2028 2.29097 84.2028C3.55623 84.2028 4.58192 83.1642 4.58192 81.8829Z" fill="#FFBC00" fill-opacity="0.67"/>
<path d="M2.29097 59.6706C2.74408 59.6706 3.187 59.8067 3.56375 60.0617C3.9405 60.3166 4.23415 60.6789 4.40755 61.1028C4.58094 61.5267 4.6263 61.9932 4.5379 62.4433C4.44951 62.8933 4.23131 63.3067 3.91091 63.6312C3.59052 63.9556 3.18231 64.1766 2.73791 64.2661C2.2935 64.3557 1.83286 64.3097 1.41425 64.1341C0.995627 63.9585 0.637835 63.6612 0.386101 63.2797C0.134367 62.8981 1.99681e-08 62.4495 0 61.9907C-2.67764e-08 61.3754 0.241382 60.7853 0.671021 60.3502C1.10066 59.9151 1.68337 59.6706 2.29097 59.6706Z" fill="#FFBC00" fill-opacity="0.67"/>
<path d="M4.58192 42.0988C4.58192 40.8174 3.55622 39.7788 2.29096 39.7788C1.0257 39.7788 -5.57589e-08 40.8174 0 42.0988C5.57589e-08 43.3801 1.0257 44.4189 2.29096 44.4189C3.55622 44.4189 4.58192 43.3801 4.58192 42.0988Z" fill="#FFBC00" fill-opacity="0.67"/>
<path d="M4.58192 22.2067C4.58192 20.9253 3.55622 19.8867 2.29096 19.8867C1.0257 19.8867 -5.57589e-08 20.9253 0 22.2067C5.57589e-08 23.488 1.0257 24.5268 2.29096 24.5268C3.55622 24.5268 4.58192 23.488 4.58192 22.2067Z" fill="#FFBC00" fill-opacity="0.67"/>
<path d="M4.58192 2.32011C4.58192 1.03879 3.55622 6.72687e-06 2.29096 6.78242e-06C1.0257 6.83798e-06 -5.57589e-08 1.03879 0 2.32011C5.57589e-08 3.60143 1.0257 4.6401 2.29096 4.6401C3.55622 4.6401 4.58192 3.60143 4.58192 2.32011Z" fill="#FFBC00" fill-opacity="0.67"/>
<path d="M24.3447 121.666C24.3447 120.384 23.319 119.346 22.0538 119.346C20.7885 119.346 19.7628 120.384 19.7628 121.666C19.7628 122.947 20.7885 123.986 22.0538 123.986C23.319 123.986 24.3447 122.947 24.3447 121.666Z" fill="#FFBC00" fill-opacity="0.67"/>
<path d="M24.3447 101.775C24.3447 100.493 23.319 99.4546 22.0538 99.4546C20.7885 99.4546 19.7628 100.493 19.7628 101.775C19.7628 103.056 20.7885 104.095 22.0538 104.095C23.319 104.095 24.3447 103.056 24.3447 101.775Z" fill="#FFBC00" fill-opacity="0.67"/>
<path d="M24.3447 81.8829C24.3447 80.6015 23.319 79.5627 22.0538 79.5627C20.7885 79.5627 19.7628 80.6015 19.7628 81.8829C19.7628 83.1642 20.7885 84.2028 22.0538 84.2028C23.319 84.2028 24.3447 83.1642 24.3447 81.8829Z" fill="#FFBC00" fill-opacity="0.67"/>
<path d="M22.0538 59.6706C22.5069 59.6706 22.9498 59.8067 23.3265 60.0617C23.7033 60.3166 23.9969 60.6789 24.1703 61.1028C24.3437 61.5267 24.3891 61.9932 24.3007 62.4433C24.2123 62.8933 23.9941 63.3067 23.6737 63.6312C23.3533 63.9556 22.9451 64.1766 22.5007 64.2661C22.0563 64.3557 21.5957 64.3097 21.1771 64.1341C20.7585 63.9585 20.4006 63.6612 20.1489 63.2797C19.8972 62.8981 19.7628 62.4495 19.7628 61.9907C19.7628 61.3754 20.0042 60.7853 20.4338 60.3502C20.8634 59.9151 21.4462 59.6706 22.0538 59.6706Z" fill="#FFBC00" fill-opacity="0.67"/>
<path d="M24.3447 42.0988C24.3447 40.8174 23.319 39.7788 22.0538 39.7788C20.7885 39.7788 19.7628 40.8174 19.7628 42.0988C19.7628 43.3801 20.7885 44.4189 22.0538 44.4189C23.319 44.4189 24.3447 43.3801 24.3447 42.0988Z" fill="#FFBC00" fill-opacity="0.67"/>
<path d="M24.3447 22.2067C24.3447 20.9253 23.319 19.8867 22.0538 19.8867C20.7885 19.8867 19.7628 20.9253 19.7628 22.2067C19.7628 23.488 20.7885 24.5268 22.0538 24.5268C23.319 24.5268 24.3447 23.488 24.3447 22.2067Z" fill="#FFBC00" fill-opacity="0.67"/>
<path d="M24.3447 2.32011C24.3447 1.03879 23.319 5.85915e-06 22.0538 5.9147e-06C20.7885 5.97025e-06 19.7628 1.03879 19.7628 2.32011C19.7628 3.60143 20.7885 4.64009 22.0538 4.64009C23.319 4.64009 24.3447 3.60143 24.3447 2.32011Z" fill="#FFBC00" fill-opacity="0.67"/>
<path d="M41.3467 121.666C41.3467 120.384 40.321 119.346 39.0558 119.346C37.7905 119.346 36.7648 120.384 36.7648 121.666C36.7648 122.947 37.7905 123.986 39.0558 123.986C40.321 123.986 41.3467 122.947 41.3467 121.666Z" fill="#FFBC00" fill-opacity="0.67"/>
<path d="M41.3467 101.775C41.3467 100.493 40.321 99.4546 39.0558 99.4546C37.7905 99.4546 36.7648 100.493 36.7648 101.775C36.7648 103.056 37.7905 104.095 39.0558 104.095C40.321 104.095 41.3467 103.056 41.3467 101.775Z" fill="#FFBC00" fill-opacity="0.67"/>
<path d="M41.3467 81.8829C41.3467 80.6015 40.321 79.5627 39.0558 79.5627C37.7905 79.5627 36.7648 80.6015 36.7648 81.8829C36.7648 83.1642 37.7905 84.2028 39.0558 84.2028C40.321 84.2028 41.3467 83.1642 41.3467 81.8829Z" fill="#FFBC00" fill-opacity="0.67"/>
<path d="M39.0558 59.6706C39.5089 59.6706 39.9518 59.8067 40.3286 60.0617C40.7053 60.3166 40.9989 60.6789 41.1723 61.1028C41.3457 61.5267 41.3911 61.9932 41.3027 62.4432C41.2143 62.8933 40.9961 63.3067 40.6757 63.6312C40.3553 63.9556 39.9471 64.1766 39.5027 64.2661C39.0583 64.3557 38.5977 64.3097 38.179 64.1341C37.7604 63.9585 37.4026 63.6612 37.1509 63.2796C36.8992 62.8981 36.7648 62.4495 36.7648 61.9907C36.7648 61.3754 37.0062 60.7853 37.4358 60.3502C37.8654 59.9151 38.4482 59.6706 39.0558 59.6706Z" fill="#FFBC00" fill-opacity="0.67"/>
<path d="M41.3467 42.0988C41.3467 40.8174 40.321 39.7788 39.0558 39.7788C37.7905 39.7788 36.7648 40.8174 36.7648 42.0988C36.7648 43.3801 37.7905 44.4189 39.0558 44.4189C40.321 44.4189 41.3467 43.3801 41.3467 42.0988Z" fill="#FFBC00" fill-opacity="0.67"/>
<path d="M41.3467 22.2066C41.3467 20.9253 40.321 19.8867 39.0558 19.8867C37.7905 19.8867 36.7648 20.9253 36.7648 22.2067C36.7648 23.488 37.7905 24.5268 39.0558 24.5268C40.321 24.5268 41.3467 23.488 41.3467 22.2066Z" fill="#FFBC00" fill-opacity="0.67"/>
<path d="M41.3467 2.32011C41.3467 1.03879 40.321 5.11264e-06 39.0558 5.1682e-06C37.7905 5.22375e-06 36.7648 1.03879 36.7648 2.32011C36.7648 3.60143 37.7905 4.64009 39.0558 4.64009C40.321 4.64009 41.3467 3.60143 41.3467 2.32011Z" fill="#FFBC00" fill-opacity="0.67"/>
<path d="M60.9845 121.666C60.9845 120.384 59.9589 119.346 58.6936 119.346C57.4283 119.346 56.4026 120.384 56.4026 121.666C56.4026 122.947 57.4283 123.986 58.6936 123.986C59.9589 123.986 60.9845 122.947 60.9845 121.666Z" fill="#FFBC00" fill-opacity="0.67"/>
<path d="M60.9845 101.775C60.9845 100.493 59.9589 99.4546 58.6936 99.4546C57.4283 99.4546 56.4026 100.493 56.4026 101.775C56.4026 103.056 57.4283 104.095 58.6936 104.095C59.9589 104.095 60.9845 103.056 60.9845 101.775Z" fill="#FFBC00" fill-opacity="0.67"/>
<path d="M60.9845 81.8829C60.9845 80.6015 59.9589 79.5627 58.6936 79.5627C57.4283 79.5627 56.4026 80.6015 56.4026 81.8829C56.4026 83.1642 57.4283 84.2028 58.6936 84.2028C59.9589 84.2028 60.9845 83.1642 60.9845 81.8829Z" fill="#FFBC00" fill-opacity="0.67"/>
<path d="M58.6937 59.6706C59.1466 59.6715 59.5891 59.8083 59.9653 60.0638C60.3414 60.3192 60.6344 60.6819 60.8071 61.1059C60.9798 61.5299 61.0245 61.9963 60.9356 62.446C60.8467 62.8958 60.6282 63.3087 60.3076 63.6327C59.987 63.9567 59.5788 64.1773 59.1346 64.2665C58.6903 64.3556 58.2299 64.3094 57.8115 64.1337C57.3931 63.958 57.0356 63.6605 56.7841 63.2791C56.5325 62.8977 56.3983 62.4493 56.3983 61.9907C56.3983 61.6856 56.4577 61.3836 56.5731 61.1018C56.6885 60.8201 56.8576 60.564 57.0708 60.3485C57.2841 60.133 57.5371 59.9622 57.8156 59.8459C58.0941 59.7296 58.3925 59.67 58.6937 59.6706Z" fill="#FFBC00" fill-opacity="0.67"/>
<path d="M60.9845 42.0988C60.9845 40.8174 59.9589 39.7788 58.6936 39.7788C57.4283 39.7788 56.4026 40.8174 56.4026 42.0988C56.4026 43.3801 57.4283 44.4189 58.6936 44.4189C59.9589 44.4189 60.9845 43.3801 60.9845 42.0988Z" fill="#FFBC00" fill-opacity="0.67"/>
<path d="M60.9845 22.2066C60.9845 20.9253 59.9589 19.8867 58.6936 19.8867C57.4283 19.8867 56.4026 20.9253 56.4026 22.2066C56.4026 23.488 57.4283 24.5268 58.6936 24.5268C59.9589 24.5268 60.9845 23.488 60.9845 22.2066Z" fill="#FFBC00" fill-opacity="0.67"/>
<path d="M60.9845 2.32011C60.9845 1.03879 59.9589 4.25041e-06 58.6936 4.30596e-06C57.4283 4.36151e-06 56.4026 1.03879 56.4026 2.32011C56.4026 3.60143 57.4283 4.64009 58.6936 4.64009C59.9589 4.64009 60.9845 3.60143 60.9845 2.32011Z" fill="#FFBC00" fill-opacity="0.67"/>
<path d="M80.498 121.666C80.498 120.384 79.4723 119.346 78.207 119.346C76.9417 119.346 75.916 120.384 75.916 121.666C75.916 122.947 76.9417 123.986 78.207 123.986C79.4723 123.986 80.498 122.947 80.498 121.666Z" fill="#FFBC00" fill-opacity="0.67"/>
<path d="M80.498 101.775C80.498 100.493 79.4723 99.4546 78.207 99.4546C76.9417 99.4546 75.916 100.493 75.916 101.775C75.916 103.056 76.9417 104.095 78.207 104.095C79.4723 104.095 80.498 103.056 80.498 101.775Z" fill="#FFBC00" fill-opacity="0.67"/>
<path d="M80.498 81.8829C80.498 80.6015 79.4723 79.5627 78.207 79.5627C76.9417 79.5627 75.916 80.6015 75.916 81.8829C75.916 83.1642 76.9417 84.2028 78.207 84.2028C79.4723 84.2028 80.498 83.1642 80.498 81.8829Z" fill="#FFBC00" fill-opacity="0.67"/>
<path d="M78.207 59.6706C78.6601 59.6706 79.1031 59.8067 79.4798 60.0617C79.8565 60.3166 80.1502 60.6789 80.3236 61.1028C80.497 61.5267 80.5423 61.9932 80.4539 62.4432C80.3655 62.8933 80.1473 63.3067 79.827 63.6312C79.5066 63.9556 79.0984 64.1766 78.6539 64.2661C78.2095 64.3556 77.7489 64.3097 77.3303 64.1341C76.9117 63.9585 76.5539 63.6612 76.3021 63.2796C76.0504 62.8981 75.916 62.4495 75.916 61.9907C75.916 61.3754 76.1574 60.7853 76.5871 60.3502C77.0167 59.9151 77.5994 59.6706 78.207 59.6706Z" fill="#FFBC00" fill-opacity="0.67"/>
<path d="M80.498 42.0988C80.498 40.8174 79.4723 39.7788 78.207 39.7788C76.9417 39.7788 75.916 40.8174 75.916 42.0988C75.916 43.3801 76.9417 44.4189 78.207 44.4189C79.4723 44.4189 80.498 43.3801 80.498 42.0988Z" fill="#FFBC00" fill-opacity="0.67"/>
<path d="M80.498 22.2066C80.498 20.9253 79.4723 19.8867 78.207 19.8867C76.9417 19.8867 75.916 20.9253 75.916 22.2066C75.916 23.488 76.9417 24.5268 78.207 24.5268C79.4723 24.5268 80.498 23.488 80.498 22.2066Z" fill="#FFBC00" fill-opacity="0.67"/>
<path d="M80.498 2.32011C80.498 1.03879 79.4723 3.39363e-06 78.207 3.44919e-06C76.9417 3.50474e-06 75.916 1.03879 75.916 2.32011C75.916 3.60143 76.9417 4.64009 78.207 4.64009C79.4723 4.64009 80.498 3.60143 80.498 2.32011Z" fill="#FFBC00" fill-opacity="0.67"/>
<path d="M100.14 121.666C100.14 120.384 99.1147 119.346 97.8495 119.346C96.5842 119.346 95.5585 120.384 95.5585 121.666C95.5585 122.947 96.5842 123.986 97.8495 123.986C99.1147 123.986 100.14 122.947 100.14 121.666Z" fill="#FFBC00" fill-opacity="0.67"/>
<path d="M100.14 101.775C100.14 100.493 99.1147 99.4546 97.8495 99.4546C96.5842 99.4546 95.5585 100.493 95.5585 101.775C95.5585 103.056 96.5842 104.095 97.8495 104.095C99.1147 104.095 100.14 103.056 100.14 101.775Z" fill="#FFBC00" fill-opacity="0.67"/>
<path d="M100.14 81.8828C100.14 80.6015 99.1147 79.5627 97.8495 79.5627C96.5842 79.5627 95.5585 80.6015 95.5585 81.8828C95.5585 83.1642 96.5842 84.2028 97.8495 84.2028C99.1147 84.2028 100.14 83.1642 100.14 81.8828Z" fill="#FFBC00" fill-opacity="0.67"/>
<path d="M97.8496 59.6706C98.3025 59.6715 98.745 59.8083 99.1212 60.0638C99.4973 60.3192 99.7903 60.6819 99.963 61.1059C100.136 61.5299 100.18 61.9963 100.092 62.446C100.003 62.8958 99.7841 63.3087 99.4635 63.6327C99.143 63.9567 98.7347 64.1773 98.2905 64.2665C97.8462 64.3556 97.3858 64.3094 96.9674 64.1337C96.549 63.958 96.1915 63.6605 95.94 63.2791C95.6884 62.8977 95.5542 62.4493 95.5542 61.9907C95.5542 61.6856 95.6136 61.3836 95.729 61.1018C95.8444 60.8201 96.0135 60.564 96.2268 60.3485C96.44 60.133 96.693 59.9622 96.9715 59.8459C97.25 59.7296 97.5484 59.67 97.8496 59.6706Z" fill="#FFBC00" fill-opacity="0.67"/>
<path d="M100.14 42.0988C100.14 40.8174 99.1147 39.7788 97.8495 39.7788C96.5842 39.7788 95.5585 40.8174 95.5585 42.0988C95.5585 43.3801 96.5842 44.4189 97.8495 44.4189C99.1147 44.4189 100.14 43.3801 100.14 42.0988Z" fill="#FFBC00" fill-opacity="0.67"/>
<path d="M100.14 22.2066C100.14 20.9253 99.1147 19.8867 97.8495 19.8867C96.5842 19.8867 95.5585 20.9253 95.5585 22.2066C95.5585 23.488 96.5842 24.5268 97.8495 24.5268C99.1147 24.5268 100.14 23.488 100.14 22.2066Z" fill="#FFBC00" fill-opacity="0.67"/>
<path d="M100.14 2.32011C100.14 1.03878 99.1147 2.53119e-06 97.8495 2.58674e-06C96.5842 2.6423e-06 95.5585 1.03879 95.5585 2.32011C95.5585 3.60143 96.5842 4.64009 97.8495 4.64009C99.1147 4.64009 100.14 3.60143 100.14 2.32011Z" fill="#FFBC00" fill-opacity="0.67"/>
<path d="M119.774 121.666C119.774 120.384 118.748 119.346 117.483 119.346C116.218 119.346 115.192 120.384 115.192 121.666C115.192 122.947 116.218 123.986 117.483 123.986C118.748 123.986 119.774 122.947 119.774 121.666Z" fill="#FFBC00" fill-opacity="0.67"/>
<path d="M119.774 101.775C119.774 100.493 118.748 99.4546 117.483 99.4546C116.218 99.4546 115.192 100.493 115.192 101.775C115.192 103.056 116.218 104.095 117.483 104.095C118.748 104.095 119.774 103.056 119.774 101.775Z" fill="#FFBC00" fill-opacity="0.67"/>
<path d="M119.774 81.8828C119.774 80.6015 118.748 79.5627 117.483 79.5627C116.218 79.5627 115.192 80.6015 115.192 81.8828C115.192 83.1642 116.218 84.2028 117.483 84.2028C118.748 84.2028 119.774 83.1642 119.774 81.8828Z" fill="#FFBC00" fill-opacity="0.67"/>
<path d="M117.483 59.6706C117.936 59.6706 118.379 59.8067 118.756 60.0617C119.133 60.3166 119.426 60.6789 119.6 61.1028C119.773 61.5267 119.819 61.9932 119.73 62.4432C119.642 62.8933 119.424 63.3067 119.103 63.6312C118.783 63.9556 118.375 64.1766 117.93 64.2661C117.486 64.3556 117.025 64.3097 116.607 64.1341C116.188 63.9585 115.83 63.6612 115.578 63.2796C115.327 62.8981 115.192 62.4495 115.192 61.9907C115.193 61.3757 115.435 60.7863 115.865 60.3515C116.294 59.9166 116.876 59.6718 117.483 59.6706Z" fill="#FFBC00" fill-opacity="0.67"/>
<path d="M119.774 42.0988C119.774 40.8174 118.748 39.7788 117.483 39.7788C116.218 39.7788 115.192 40.8174 115.192 42.0988C115.192 43.3801 116.218 44.4189 117.483 44.4189C118.748 44.4189 119.774 43.3801 119.774 42.0988Z" fill="#FFBC00" fill-opacity="0.67"/>
<path d="M119.774 22.2066C119.774 20.9253 118.748 19.8867 117.483 19.8867C116.218 19.8867 115.192 20.9253 115.192 22.2066C115.192 23.488 116.218 24.5267 117.483 24.5267C118.748 24.5267 119.774 23.488 119.774 22.2066Z" fill="#FFBC00" fill-opacity="0.67"/>
<path d="M119.774 2.3201C119.774 1.03878 118.748 1.66914e-06 117.483 1.72469e-06C116.218 1.78024e-06 115.192 1.03878 115.192 2.3201C115.192 3.60143 116.218 4.64009 117.483 4.64009C118.748 4.64009 119.774 3.60142 119.774 2.3201Z" fill="#FFBC00" fill-opacity="0.67"/>
<path d="M139.292 121.666C139.292 120.384 138.266 119.346 137.001 119.346C135.736 119.346 134.71 120.384 134.71 121.666C134.71 122.947 135.736 123.986 137.001 123.986C138.266 123.986 139.292 122.947 139.292 121.666Z" fill="#FFBC00" fill-opacity="0.67"/>
<path d="M139.292 101.775C139.292 100.493 138.266 99.4546 137.001 99.4546C135.736 99.4546 134.71 100.493 134.71 101.775C134.71 103.056 135.736 104.095 137.001 104.095C138.266 104.095 139.292 103.056 139.292 101.775Z" fill="#FFBC00" fill-opacity="0.67"/>
<path d="M139.292 81.8828C139.292 80.6015 138.266 79.5627 137.001 79.5627C135.736 79.5627 134.71 80.6015 134.71 81.8828C134.71 83.1642 135.736 84.2028 137.001 84.2028C138.266 84.2028 139.292 83.1642 139.292 81.8828Z" fill="#FFBC00" fill-opacity="0.67"/>
<path d="M137.001 59.6706C137.454 59.6706 137.897 59.8067 138.274 60.0617C138.651 60.3166 138.944 60.6789 139.118 61.1028C139.291 61.5267 139.336 61.9932 139.248 62.4432C139.16 62.8933 138.941 63.3067 138.621 63.6312C138.301 63.9556 137.892 64.1766 137.448 64.2661C137.004 64.3556 136.543 64.3097 136.124 64.1341C135.706 63.9585 135.348 63.6612 135.096 63.2796C134.844 62.8981 134.71 62.4495 134.71 61.9907C134.71 61.3754 134.951 60.7853 135.381 60.3502C135.811 59.9151 136.393 59.6706 137.001 59.6706Z" fill="#FFBC00" fill-opacity="0.67"/>
<path d="M139.292 42.0988C139.292 40.8174 138.266 39.7788 137.001 39.7788C135.736 39.7788 134.71 40.8174 134.71 42.0988C134.71 43.3801 135.736 44.4189 137.001 44.4189C138.266 44.4189 139.292 43.3801 139.292 42.0988Z" fill="#FFBC00" fill-opacity="0.67"/>
<path d="M139.292 22.2066C139.292 20.9253 138.266 19.8867 137.001 19.8867C135.736 19.8867 134.71 20.9253 134.71 22.2066C134.71 23.488 135.736 24.5267 137.001 24.5267C138.266 24.5267 139.292 23.488 139.292 22.2066Z" fill="#FFBC00" fill-opacity="0.67"/>
<path d="M139.292 2.3201C139.292 1.03878 138.266 8.1217e-07 137.001 8.67723e-07C135.736 9.23277e-07 134.71 1.03878 134.71 2.3201C134.71 3.60142 135.736 4.64009 137.001 4.64009C138.266 4.64009 139.292 3.60142 139.292 2.3201Z" fill="#FFBC00" fill-opacity="0.67"/>
<path d="M159.055 121.666C159.055 120.384 158.029 119.346 156.764 119.346C155.499 119.346 154.473 120.384 154.473 121.666C154.473 122.947 155.499 123.986 156.764 123.986C158.029 123.986 159.055 122.947 159.055 121.666Z" fill="#FFBC00" fill-opacity="0.67"/>
<path d="M159.055 101.775C159.055 100.493 158.029 99.4546 156.764 99.4546C155.499 99.4546 154.473 100.493 154.473 101.775C154.473 103.056 155.499 104.095 156.764 104.095C158.029 104.095 159.055 103.056 159.055 101.775Z" fill="#FFBC00" fill-opacity="0.67"/>
<path d="M159.055 81.8828C159.055 80.6015 158.029 79.5627 156.764 79.5627C155.499 79.5627 154.473 80.6015 154.473 81.8828C154.473 83.1642 155.499 84.2028 156.764 84.2028C158.029 84.2028 159.055 83.1642 159.055 81.8828Z" fill="#FFBC00" fill-opacity="0.67"/>
<path d="M156.764 59.6706C157.217 59.6706 157.66 59.8067 158.037 60.0617C158.413 60.3166 158.707 60.6789 158.88 61.1028C159.054 61.5267 159.099 61.9932 159.011 62.4432C158.922 62.8933 158.704 63.3067 158.384 63.6312C158.063 63.9556 157.655 64.1766 157.211 64.2661C156.766 64.3556 156.306 64.3097 155.887 64.1341C155.468 63.9585 155.111 63.6612 154.859 63.2796C154.607 62.8981 154.473 62.4495 154.473 61.9907C154.473 61.3754 154.714 60.7853 155.144 60.3502C155.573 59.9151 156.156 59.6706 156.764 59.6706Z" fill="#FFBC00" fill-opacity="0.67"/>
<path d="M159.055 42.0988C159.055 40.8174 158.029 39.7788 156.764 39.7788C155.499 39.7788 154.473 40.8174 154.473 42.0988C154.473 43.3801 155.499 44.4189 156.764 44.4189C158.029 44.4189 159.055 43.3801 159.055 42.0988Z" fill="#FFBC00" fill-opacity="0.67"/>
<path d="M159.055 22.2066C159.055 20.9253 158.029 19.8867 156.764 19.8867C155.499 19.8867 154.473 20.9253 154.473 22.2066C154.473 23.488 155.499 24.5267 156.764 24.5267C158.029 24.5267 159.055 23.488 159.055 22.2066Z" fill="#FFBC00" fill-opacity="0.67"/>
<path d="M159.055 2.3201C159.055 1.03878 158.029 -5.55537e-08 156.764 0C155.499 5.55537e-08 154.473 1.03878 154.473 2.3201C154.473 3.60142 155.499 4.64009 156.764 4.64009C158.029 4.64009 159.055 3.60142 159.055 2.3201Z" fill="#FFBC00" fill-opacity="0.67"/>
</g>
</svg>
